# xmcd
#
# Track frame offsets:
# 150
# 14493
# 26339
# 48431
# 63658
# 78373
# 89951
# 106689
# 121032
# 132863
# 155140
# 170379
# 185068
# 196594
#
# Disc length: 2842 seconds
#
#
# Revision: 0
# Processed by: cddbd v1.5.2PL0 Copyright (c) Steve Scherf et al.
# Submitted via: FreeRIP 2.951 
#
DISCID=b60b180e
DTITLE=levita e levitinha  - louva viola
DYEAR=1900
DGENRE=Gospel
TTITLE0=REI SOBERANO
TTITLE1=LOUVA VIOLA
TTITLE2=HISTORIA DE JESUS
TTITLE3=FOGO PENTECOSTAL
TTITLE4=FALANDO DA BIBLIA
TTITLE5=SAUDADE DO SERTAO
TTITLE6=O TESTEMUNHO
TTITLE7=PLAY BACK
TTITLE8=PLAY BACK
TTITLE9=PLAY BACK
TTITLE10=PLAY BACK
TTITLE11=PLAY BACK
TTITLE12=PLAY BACK
TTITLE13=PLAY BACK
EXTD=
EXTT0=
EXTT1=
EXTT2=
EXTT3=
EXTT4=
EXTT5=
EXTT6=
EXTT7=
EXTT8=
EXTT9=
EXTT10=
EXTT11=
EXTT12=
EXTT13=
PLAYORDER=
